<svg width="56" height="56" viewBox="0 0 56 56" fill="none" xmlns="http://www.w3.org/2000/svg">
<g clip-path="url(#clip0_13_373)">
<path d="M55.9585 24.4588L52.2253 12.3253C52.1047 11.9338 51.7429 11.6665 51.3332 11.6665H33.053L22.1263 0.739799C21.7622 0.375471 21.1706 0.375471 20.8065 0.739799L9.87984 11.6665H4.66649C4.25677 11.6665 3.89495 11.9338 3.77442 12.3253L0.0410173 24.4588C-0.0460452 24.7419 0.00634545 25.0495 0.18233 25.2877C0.358205 25.5259 0.636892 25.6666 0.93308 25.6666H3.73308V54.5999C3.73308 55.1154 4.151 55.5332 4.66638 55.5332H10.2664H16.7998H26.1331H32.6664H51.3331C51.8486 55.5332 52.2664 55.1153 52.2664 54.5999V25.6665H55.0664C55.3626 25.6665 55.6413 25.5259 55.8172 25.2877C55.9932 25.0495 56.0456 24.7418 55.9585 24.4588ZM9.33308 53.6665H5.59978V25.6665H9.33308V53.6665ZM9.33308 23.7999H4.66649H2.1968L5.35566 13.5332H9.33308V23.7999ZM25.1998 53.6665H17.7331V38.7332H25.1998V53.6665ZM31.7331 24.7332V53.6665H27.0664V37.7999C27.0664 37.2844 26.6485 36.8666 26.1331 36.8666H16.7998C16.2843 36.8666 15.8665 37.2845 15.8665 37.7999V53.6666H11.1998V24.7332V12.9864L21.4665 2.71971L31.7332 12.9864V24.7332H31.7331ZM50.3998 53.6665H33.5998V25.6665H50.3998V53.6665ZM51.3331 23.7999H33.5998V13.5332H50.6438L53.8027 23.7999H51.3331Z" fill="#19BCE4"/>
<path d="M48.5334 30.3333H43.8667C43.3512 30.3333 42.9334 30.7512 42.9334 31.2665V47.1333C42.9334 47.6486 43.3514 48.0665 43.8667 48.0665H48.5334C49.0489 48.0665 49.4667 47.6486 49.4667 47.1333V31.2665C49.4668 30.7512 49.0489 30.3333 48.5334 30.3333ZM47.6001 46.2H44.8001V32.2H47.6001V46.2Z" fill="#19BCE4"/>
<path d="M40.1335 30.3333H35.4668C34.9513 30.3333 34.5335 30.7512 34.5335 31.2665V47.1333C34.5335 47.6486 34.9514 48.0665 35.4668 48.0665H40.1335C40.649 48.0665 41.0668 47.6486 41.0668 47.1333V31.2665C41.0669 30.7512 40.649 30.3333 40.1335 30.3333ZM39.2002 46.2H36.4002V32.2H39.2002V46.2Z" fill="#19BCE4"/>
<path d="M26.1335 12.5999H16.8002C16.2847 12.5999 15.8669 13.0178 15.8669 13.5332V23.7999C15.8669 24.3152 16.2848 24.7332 16.8002 24.7332H26.1335C26.649 24.7332 27.0668 24.3152 27.0668 23.7999V13.5332C27.0669 13.0178 26.649 12.5999 26.1335 12.5999ZM25.2002 22.8665H17.7335V14.4664H25.2002V22.8665Z" fill="#19BCE4"/>
</g>
<defs>
<clipPath id="clip0_13_373">
<rect width="56" height="56" fill="white"/>
</clipPath>
</defs>
</svg>
