<svg width="56" height="56" viewBox="0 0 56 56" fill="none" xmlns="http://www.w3.org/2000/svg">
<g clip-path="url(#clip0_13_394)">
<path d="M10.5 22.6407H12.1406C12.7446 22.6407 13.2343 22.151 13.2343 21.547V19.9065C13.2343 19.3024 12.7446 18.8127 12.1406 18.8127H10.5C9.89576 18.8127 9.4062 19.3024 9.4062 19.9065V21.547C9.4062 22.151 9.89576 22.6407 10.5 22.6407Z" fill="#19BCE4"/>
<path d="M10.5 29.2033H12.1406C12.7446 29.2033 13.2343 28.7136 13.2343 28.1096V26.4687C13.2343 25.8647 12.7446 25.375 12.1406 25.375H10.5C9.89576 25.375 9.4062 25.8647 9.4062 26.4687V28.1096C9.4062 28.7136 9.89576 29.2033 10.5 29.2033Z" fill="#19BCE4"/>
<path d="M10.5 35.7655H12.1406C12.7446 35.7655 13.2343 35.2758 13.2343 34.6718V33.0312C13.2343 32.4273 12.7446 31.9375 12.1406 31.9375H10.5C9.89576 31.9375 9.4062 32.4273 9.4062 33.0312V34.6718C9.4062 35.2757 9.89576 35.7655 10.5 35.7655Z" fill="#19BCE4"/>
<path d="M10.5 42.3279H12.1406C12.7446 42.3279 13.2343 41.8381 13.2343 41.2341V39.5937C13.2343 38.9898 12.7446 38.5 12.1406 38.5H10.5C9.89576 38.5 9.4062 38.9898 9.4062 39.5937V41.2341C9.4062 41.8381 9.89576 42.3279 10.5 42.3279Z" fill="#19BCE4"/>
<path d="M16.2421 22.6407H17.8828C18.4868 22.6407 18.9766 22.151 18.9766 21.547V19.9065C18.9766 19.3024 18.4868 18.8127 17.8828 18.8127H16.2421C15.638 18.8127 15.1483 19.3024 15.1483 19.9065V21.547C15.1483 22.151 15.638 22.6407 16.2421 22.6407Z" fill="#19BCE4"/>
<path d="M16.2421 29.2033H17.8828C18.4868 29.2033 18.9766 28.7136 18.9766 28.1096V26.4687C18.9766 25.8647 18.4868 25.375 17.8828 25.375H16.2421C15.638 25.375 15.1483 25.8647 15.1483 26.4687V28.1096C15.1483 28.7136 15.638 29.2033 16.2421 29.2033Z" fill="#19BCE4"/>
<path d="M16.2421 35.7655H17.8828C18.4868 35.7655 18.9766 35.2758 18.9766 34.6718V33.0312C18.9766 32.4273 18.4868 31.9375 17.8828 31.9375H16.2421C15.638 31.9375 15.1483 32.4273 15.1483 33.0312V34.6718C15.1483 35.2757 15.638 35.7655 16.2421 35.7655Z" fill="#19BCE4"/>
<path d="M16.2421 42.3279H17.8828C18.4868 42.3279 18.9766 41.8381 18.9766 41.2341V39.5937C18.9766 38.9898 18.4868 38.5 17.8828 38.5H16.2421C15.638 38.5 15.1483 38.9898 15.1483 39.5937V41.2341C15.1483 41.8381 15.638 42.3279 16.2421 42.3279Z" fill="#19BCE4"/>
<path d="M21.9836 22.6407H23.6243C24.2284 22.6407 24.7181 22.151 24.7181 21.547V19.9065C24.7181 19.3024 24.2284 18.8127 23.6243 18.8127H21.9836C21.3796 18.8127 20.8899 19.3024 20.8899 19.9065V21.547C20.8899 22.151 21.3795 22.6407 21.9836 22.6407Z" fill="#19BCE4"/>
<path d="M21.9836 29.2033H23.6243C24.2284 29.2033 24.7181 28.7136 24.7181 28.1096V26.4687C24.7181 25.8647 24.2284 25.375 23.6243 25.375H21.9836C21.3796 25.375 20.8899 25.8647 20.8899 26.4687V28.1096C20.8899 28.7136 21.3795 29.2033 21.9836 29.2033Z" fill="#19BCE4"/>
<path d="M21.9836 35.7655H23.6243C24.2284 35.7655 24.7181 35.2758 24.7181 34.6718V33.0312C24.7181 32.4273 24.2284 31.9375 23.6243 31.9375H21.9836C21.3796 31.9375 20.8899 32.4273 20.8899 33.0312V34.6718C20.8899 35.2757 21.3795 35.7655 21.9836 35.7655Z" fill="#19BCE4"/>
<path d="M21.9836 42.3279H23.6243C24.2284 42.3279 24.7181 41.8381 24.7181 41.2341V39.5937C24.7181 38.9898 24.2284 38.5 23.6243 38.5H21.9836C21.3796 38.5 20.8899 38.9898 20.8899 39.5937V41.2341C20.8899 41.8381 21.3795 42.3279 21.9836 42.3279Z" fill="#19BCE4"/>
<path d="M32.3748 22.6407H34.0154C34.6195 22.6407 35.1092 22.151 35.1092 21.547V19.9065C35.1092 19.3024 34.6195 18.8127 34.0154 18.8127H32.3748C31.7706 18.8127 31.2811 19.3024 31.2811 19.9065V21.547C31.2811 22.151 31.7706 22.6407 32.3748 22.6407Z" fill="#19BCE4"/>
<path d="M32.3748 16.0784H34.0154C34.6195 16.0784 35.1092 15.5886 35.1092 14.9846V13.3442C35.1092 12.7403 34.6195 12.2505 34.0154 12.2505H32.3748C31.7706 12.2505 31.2811 12.7403 31.2811 13.3442V14.9846C31.2811 15.5886 31.7706 16.0784 32.3748 16.0784Z" fill="#19BCE4"/>
<path d="M32.3748 9.51643H34.0154C34.6195 9.51643 35.1092 9.02665 35.1092 8.42268V6.78173C35.1092 6.17777 34.6195 5.68799 34.0154 5.68799H32.3748C31.7706 5.68799 31.2811 6.17777 31.2811 6.78173V8.42268C31.2811 9.02665 31.7706 9.51643 32.3748 9.51643Z" fill="#19BCE4"/>
<path d="M32.3748 29.2033H34.0154C34.6195 29.2033 35.1092 28.7136 35.1092 28.1096V26.4687C35.1092 25.8647 34.6195 25.375 34.0154 25.375H32.3748C31.7706 25.375 31.2811 25.8647 31.2811 26.4687V28.1096C31.2811 28.7136 31.7706 29.2033 32.3748 29.2033Z" fill="#19BCE4"/>
<path d="M32.3748 35.7655H34.0154C34.6195 35.7655 35.1092 35.2758 35.1092 34.6718V33.0312C35.1092 32.4273 34.6195 31.9375 34.0154 31.9375H32.3748C31.7706 31.9375 31.2811 32.4273 31.2811 33.0312V34.6718C31.2811 35.2757 31.7706 35.7655 32.3748 35.7655Z" fill="#19BCE4"/>
<path d="M32.3748 42.3279H34.0154C34.6195 42.3279 35.1092 41.8381 35.1092 41.2341V39.5937C35.1092 38.9898 34.6195 38.5 34.0154 38.5H32.3748C31.7706 38.5 31.2811 38.9898 31.2811 39.5937V41.2341C31.2811 41.8381 31.7706 42.3279 32.3748 42.3279Z" fill="#19BCE4"/>
<path d="M38.117 22.6407H39.7576C40.3617 22.6407 40.8513 22.151 40.8513 21.547V19.9065C40.8513 19.3024 40.3617 18.8127 39.7576 18.8127H38.117C37.513 18.8127 37.0232 19.3024 37.0232 19.9065V21.547C37.0232 22.151 37.513 22.6407 38.117 22.6407Z" fill="#19BCE4"/>
<path d="M38.117 16.0784H39.7576C40.3617 16.0784 40.8513 15.5886 40.8513 14.9846V13.3442C40.8513 12.7403 40.3617 12.2505 39.7576 12.2505H38.117C37.513 12.2505 37.0232 12.7403 37.0232 13.3442V14.9846C37.0232 15.5886 37.513 16.0784 38.117 16.0784Z" fill="#19BCE4"/>
<path d="M38.117 9.51643H39.7576C40.3617 9.51643 40.8513 9.02665 40.8513 8.42268V6.78173C40.8513 6.17777 40.3617 5.68799 39.7576 5.68799H38.117C37.513 5.68799 37.0232 6.17777 37.0232 6.78173V8.42268C37.0232 9.02665 37.513 9.51643 38.117 9.51643Z" fill="#19BCE4"/>
<path d="M38.117 29.2033H39.7576C40.3617 29.2033 40.8513 28.7136 40.8513 28.1096V26.4687C40.8513 25.8647 40.3617 25.375 39.7576 25.375H38.117C37.513 25.375 37.0232 25.8647 37.0232 26.4687V28.1096C37.0232 28.7136 37.513 29.2033 38.117 29.2033Z" fill="#19BCE4"/>
<path d="M38.117 35.7655H39.7576C40.3617 35.7655 40.8513 35.2758 40.8513 34.6718V33.0312C40.8513 32.4273 40.3617 31.9375 39.7576 31.9375H38.117C37.513 31.9375 37.0232 32.4273 37.0232 33.0312V34.6718C37.0232 35.2757 37.513 35.7655 38.117 35.7655Z" fill="#19BCE4"/>
<path d="M38.117 42.3279H39.7576C40.3617 42.3279 40.8513 41.8381 40.8513 41.2341V39.5937C40.8513 38.9898 40.3617 38.5 39.7576 38.5H38.117C37.513 38.5 37.0232 38.9898 37.0232 39.5937V41.2341C37.0232 41.8381 37.513 42.3279 38.117 42.3279Z" fill="#19BCE4"/>
<path d="M43.8591 22.6407H45.4996C46.1036 22.6407 46.5934 22.151 46.5934 21.547V19.9065C46.5934 19.3024 46.1036 18.8127 45.4996 18.8127H43.8591C43.2552 18.8127 42.7654 19.3024 42.7654 19.9065V21.547C42.7654 22.151 43.2552 22.6407 43.8591 22.6407Z" fill="#19BCE4"/>
<path d="M43.8591 16.0784H45.4996C46.1036 16.0784 46.5934 15.5886 46.5934 14.9846V13.3442C46.5934 12.7403 46.1036 12.2505 45.4996 12.2505H43.8591C43.2552 12.2505 42.7654 12.7403 42.7654 13.3442V14.9846C42.7654 15.5886 43.2552 16.0784 43.8591 16.0784Z" fill="#19BCE4"/>
<path d="M43.8591 9.51643H45.4996C46.1036 9.51643 46.5934 9.02665 46.5934 8.42268V6.78173C46.5934 6.17777 46.1036 5.68799 45.4996 5.68799H43.8591C43.2552 5.68799 42.7654 6.17777 42.7654 6.78173V8.42268C42.7654 9.02665 43.2552 9.51643 43.8591 9.51643Z" fill="#19BCE4"/>
<path d="M43.8591 29.2033H45.4996C46.1036 29.2033 46.5934 28.7136 46.5934 28.1096V26.4687C46.5934 25.8647 46.1036 25.375 45.4996 25.375H43.8591C43.2552 25.375 42.7654 25.8647 42.7654 26.4687V28.1096C42.7654 28.7136 43.2552 29.2033 43.8591 29.2033Z" fill="#19BCE4"/>
<path d="M43.8591 35.7655H45.4996C46.1036 35.7655 46.5934 35.2758 46.5934 34.6718V33.0312C46.5934 32.4273 46.1036 31.9375 45.4996 31.9375H43.8591C43.2552 31.9375 42.7654 32.4273 42.7654 33.0312V34.6718C42.7654 35.2757 43.2552 35.7655 43.8591 35.7655Z" fill="#19BCE4"/>
<path d="M43.8591 42.3279H45.4996C46.1036 42.3279 46.5934 41.8381 46.5934 41.2341V39.5937C46.5934 38.9898 46.1036 38.5 45.4996 38.5H43.8591C43.2552 38.5 42.7654 38.9898 42.7654 39.5937V41.2341C42.7654 41.8381 43.2552 42.3279 43.8591 42.3279Z" fill="#19BCE4"/>
<path d="M12.662 49.4377C12.058 49.4377 11.5683 49.9275 11.5683 50.5315C11.5683 51.1356 12.058 51.6252 12.662 51.6252H12.6878C13.2918 51.6252 13.7816 51.1356 13.7816 50.5315C13.7816 49.9274 13.2918 49.4377 12.6878 49.4377H12.662Z" fill="#19BCE4"/>
<path d="M34.5369 49.4377C33.9328 49.4377 33.4432 49.9275 33.4432 50.5315C33.4432 51.1356 33.9328 51.6252 34.5369 51.6252H34.5626C35.1666 51.6252 35.6564 51.1356 35.6564 50.5315C35.6564 49.9275 35.1666 49.4377 34.5626 49.4377H34.5369Z" fill="#19BCE4"/>
<path d="M1.11956 53.8125H1.09375C0.489561 53.8125 0 54.3023 0 54.9063C0 55.5102 0.489561 56 1.09375 56H1.11956C1.72352 56 2.2133 55.5102 2.2133 54.9063C2.2133 54.3022 1.72363 53.8125 1.11956 53.8125Z" fill="#19BCE4"/>
<path d="M54.9066 53.8125H54.8806C54.2765 53.8125 53.7868 54.3023 53.7868 54.9063C53.7868 55.5102 54.2765 56 54.8806 56H54.9066C55.5107 56 56.0004 55.5102 56.0004 54.9063C56.0004 54.3022 55.5106 53.8125 54.9066 53.8125Z" fill="#19BCE4"/>
<path d="M51.7377 53.8126H50.9681V1.09399C50.9681 0.489914 50.4783 0.000244141 49.8743 0.000244141H27.9997C27.3956 0.000244141 26.906 0.489914 26.906 1.09399V14.438H6.12483C5.52064 14.438 5.03108 14.9278 5.03108 15.5318V53.8126H4.26185C3.65778 53.8126 3.16811 54.3023 3.16811 54.9063C3.16811 55.5103 3.65778 56 4.26185 56H6.12483H17.0623H23.625H27.9997H38.9372H45.4996H49.8743H49.8744H49.8747H51.7377C52.3418 56 52.8315 55.5103 52.8315 54.9063C52.8315 54.3022 52.3418 53.8126 51.7377 53.8126ZM22.5312 53.8126H18.156V49.4379H22.5312V53.8126ZM26.906 53.8126H24.7187V48.3442C24.7187 47.7402 24.2291 47.2504 23.625 47.2504H17.0623C16.4581 47.2504 15.9685 47.7402 15.9685 48.3442V53.8126H7.21858V51.6253H9.51916C10.1231 51.6253 10.6129 51.1356 10.6129 50.5315C10.6129 49.9276 10.1231 49.4378 9.51916 49.4378H7.21858V16.6255H26.906V53.8126ZM44.4058 53.8126H40.0309V49.4379H44.4058V53.8126ZM48.7806 53.8126H46.5933V48.3442C46.5933 47.7402 46.1035 47.2504 45.4996 47.2504H38.9372C38.3331 47.2504 37.8435 47.7402 37.8435 48.3442V53.8126H29.0935V51.6253H31.394C31.998 51.6253 32.4877 51.1356 32.4877 50.5315C32.4877 49.9276 31.998 49.4378 31.394 49.4378H29.0935V15.5318V2.18774H48.7806V53.8126Z" fill="#19BCE4"/>
</g>
<defs>
<clipPath id="clip0_13_394">
<rect width="56" height="56" fill="white"/>
</clipPath>
</defs>
</svg>
